<?xml version="1.0" encoding="UTF-8" standalone="no"?>
<!DOCTYPE svg PUBLIC "-//W3C//DTD SVG 1.1//EN"
 "http://www.w3.org/Graphics/SVG/1.1/DTD/svg11.dtd">
<!-- Generated by graphviz version 2.40.1 (20161225.0304)
 -->
<!-- Title: world Pages: 1 -->
<svg width="674pt" height="608pt"
 viewBox="0.00 0.00 674.00 608.00" xmlns="http://www.w3.org/2000/svg" xmlns:xlink="http://www.w3.org/1999/xlink">
<g id="graph0" class="graph" transform="scale(1 1) rotate(0) translate(4 604)">
<title>world</title>
<polygon fill="#ffffff" stroke="transparent" points="-4,4 -4,-604 670,-604 670,4 -4,4"/>
<text text-anchor="middle" x="333" y="-584.8" font-family="Monospace" font-size="14.00" fill="#000000">09 Nov 23 05:34 UTC</text>
<g id="clust1" class="cluster">
<title>cluster_origins</title>
<polygon fill="#98fb98" stroke="#98fb98" points="8,-287 8,-362 107,-362 107,-287 8,-287"/>
<text text-anchor="middle" x="57.5" y="-346.8" font-family="Monospace" font-size="14.00" fill="#000000">Origins</text>
</g>
<g id="clust2" class="cluster">
<title>cluster_t1isp</title>
<polygon fill="#add8e6" stroke="#add8e6" points="466,-8 466,-569 658,-569 658,-8 466,-8"/>
<text text-anchor="middle" x="562" y="-553.8" font-family="Monospace" font-size="14.00" fill="#000000">Tier 1 ISPs</text>
</g>
<!-- AS206275 -->
<g id="node1" class="node">
<title>AS206275</title>
<g id="a_node1"><a xlink:href="/search?q=AS206275" xlink:title="FLAMINGHOST SRL">
<polygon fill="#ffffff" stroke="#32cd32" stroke-width="3" points="99,-331 16,-331 16,-295 99,-295 99,-331"/>
<text text-anchor="start" x="24" y="-314.8" font-family="Monospace" font-weight="bold" font-size="14.00" fill="#000000">AS206275</text>
<text text-anchor="start" x="48" y="-304" font-family="Monospace" font-size="10.00" fill="#000000">SRL</text>
</a>
</g>
</g>
<!-- AS30823 -->
<g id="node16" class="node">
<title>AS30823</title>
<g id="a_node16"><a xlink:href="/search?q=AS30823" xlink:title="aurologic GmbH">
<polygon fill="none" stroke="#000000" points="209,-331 135,-331 135,-295 209,-295 209,-331"/>
<text text-anchor="start" x="143" y="-314.8" font-family="Monospace" font-weight="bold" font-size="14.00" fill="#000000">AS30823</text>
<text text-anchor="start" x="144.5" y="-304" font-family="Monospace" font-size="10.00" fill="#000000">aurologic</text>
</a>
</g>
</g>
<!-- AS206275&#45;&gt;AS30823 -->
<g id="edge16" class="edge">
<title>AS206275&#45;&gt;AS30823</title>
<path fill="none" stroke="#000000" d="M99.161,-313C99.161,-313 124.7324,-313 124.7324,-313"/>
<polygon fill="#000000" stroke="#000000" points="124.7324,-316.5001 134.7324,-313 124.7324,-309.5001 124.7324,-316.5001"/>
</g>
<!-- AS174 -->
<g id="node2" class="node">
<title>AS174</title>
<g id="a_node2"><a xlink:href="/search?q=AS174" xlink:title="Cogent Communications">
<polygon fill="#ffffff" stroke="#005ea5" stroke-width="3" points="536,-268 478,-268 478,-232 536,-232 536,-268"/>
<text text-anchor="start" x="486" y="-251.8" font-family="Monospace" font-weight="bold" font-size="14.00" fill="#000000">AS174</text>
<text text-anchor="start" x="488.5" y="-241" font-family="Monospace" font-size="10.00" fill="#000000">Cogent</text>
</a>
</g>
</g>
<!-- AS701 -->
<g id="node3" class="node">
<title>AS701</title>
<g id="a_node3"><a xlink:href="/search?q=AS701" xlink:title="Verizon Business">
<polygon fill="#ffffff" stroke="#005ea5" stroke-width="3" points="642.5,-52 583.5,-52 583.5,-16 642.5,-16 642.5,-52"/>
<text text-anchor="start" x="592" y="-35.8" font-family="Monospace" font-weight="bold" font-size="14.00" fill="#000000">AS701</text>
<text text-anchor="start" x="591.5" y="-25" font-family="Monospace" font-size="10.00" fill="#000000">Verizon</text>
</a>
</g>
</g>
<!-- AS1299 -->
<g id="node4" class="node">
<title>AS1299</title>
<g id="a_node4"><a xlink:href="/search?q=AS1299" xlink:title="Arelion (fka. Telia Carrier)">
<polygon fill="#ffffff" stroke="#005ea5" stroke-width="3" points="540,-214 474,-214 474,-178 540,-178 540,-214"/>
<text text-anchor="start" x="482" y="-197.8" font-family="Monospace" font-weight="bold" font-size="14.00" fill="#000000">AS1299</text>
<text text-anchor="start" x="485.5" y="-187" font-family="Monospace" font-size="10.00" fill="#000000">Arelion</text>
</a>
</g>
</g>
<!-- AS2914 -->
<g id="node5" class="node">
<title>AS2914</title>
<g id="a_node5"><a xlink:href="/search?q=AS2914" xlink:title="NTT America, Inc.">
<polygon fill="#ffffff" stroke="#005ea5" stroke-width="3" points="540,-160 474,-160 474,-124 540,-124 540,-160"/>
<text text-anchor="start" x="482" y="-143.8" font-family="Monospace" font-weight="bold" font-size="14.00" fill="#000000">AS2914</text>
<text text-anchor="start" x="497.5" y="-133" font-family="Monospace" font-size="10.00" fill="#000000">NTT</text>
</a>
</g>
</g>
<!-- AS3356 -->
<g id="node8" class="node">
<title>AS3356</title>
<g id="a_node8"><a xlink:href="/search?q=AS3356" xlink:title="Lumen (Level 3)">
<polygon fill="#ffffff" stroke="#005ea5" stroke-width="3" points="646,-160 580,-160 580,-124 646,-124 646,-160"/>
<text text-anchor="start" x="588" y="-143.8" font-family="Monospace" font-weight="bold" font-size="14.00" fill="#000000">AS3356</text>
<text text-anchor="start" x="597.5" y="-133" font-family="Monospace" font-size="10.00" fill="#000000">Lumen</text>
</a>
</g>
</g>
<!-- AS2914&#45;&gt;AS3356 -->
<g id="edge5" class="edge">
<title>AS2914&#45;&gt;AS3356</title>
<path fill="none" stroke="#000000" d="M540.2482,-142C540.2482,-142 569.8697,-142 569.8697,-142"/>
<polygon fill="#000000" stroke="#000000" points="569.8698,-145.5001 579.8697,-142 569.8697,-138.5001 569.8698,-145.5001"/>
</g>
<!-- AS3257 -->
<g id="node6" class="node">
<title>AS3257</title>
<g id="a_node6"><a xlink:href="/search?q=AS3257" xlink:title="GTT Communications Inc.">
<polygon fill="#ffffff" stroke="#005ea5" stroke-width="3" points="540,-106 474,-106 474,-70 540,-70 540,-106"/>
<text text-anchor="start" x="482" y="-89.8" font-family="Monospace" font-weight="bold" font-size="14.00" fill="#000000">AS3257</text>
<text text-anchor="start" x="497.5" y="-79" font-family="Monospace" font-size="10.00" fill="#000000">GTT</text>
</a>
</g>
</g>
<!-- AS3257&#45;&gt;AS3356 -->
<g id="edge11" class="edge">
<title>AS3257&#45;&gt;AS3356</title>
<path fill="none" stroke="#000000" d="M540.1571,-82C552.6967,-82 564,-82 564,-82 564,-82 564,-133 564,-133 564,-133 569.7736,-133 569.7736,-133"/>
<polygon fill="#000000" stroke="#000000" points="569.7737,-136.5001 579.7736,-133 569.7736,-129.5001 569.7737,-136.5001"/>
</g>
<!-- AS3491 -->
<g id="node9" class="node">
<title>AS3491</title>
<g id="a_node9"><a xlink:href="/search?q=AS3491" xlink:title="PCCW Global, Inc.">
<polygon fill="#ffffff" stroke="#005ea5" stroke-width="3" points="646,-106 580,-106 580,-70 646,-70 646,-106"/>
<text text-anchor="start" x="588" y="-89.8" font-family="Monospace" font-weight="bold" font-size="14.00" fill="#000000">AS3491</text>
<text text-anchor="start" x="600.5" y="-79" font-family="Monospace" font-size="10.00" fill="#000000">PCCW</text>
</a>
</g>
</g>
<!-- AS3257&#45;&gt;AS3491 -->
<g id="edge3" class="edge">
<title>AS3257&#45;&gt;AS3491</title>
<path fill="none" stroke="#000000" d="M540.2482,-94C540.2482,-94 569.8697,-94 569.8697,-94"/>
<polygon fill="#000000" stroke="#000000" points="569.8698,-97.5001 579.8697,-94 569.8697,-90.5001 569.8698,-97.5001"/>
</g>
<!-- AS3320 -->
<g id="node7" class="node">
<title>AS3320</title>
<g id="a_node7"><a xlink:href="/search?q=AS3320" xlink:title="Deutsche Telekom AG">
<polygon fill="#ffffff" stroke="#005ea5" stroke-width="3" points="540,-538 474,-538 474,-502 540,-502 540,-538"/>
<text text-anchor="start" x="482" y="-521.8" font-family="Monospace" font-weight="bold" font-size="14.00" fill="#000000">AS3320</text>
<text text-anchor="start" x="494.5" y="-511" font-family="Monospace" font-size="10.00" fill="#000000">DTAG</text>
</a>
</g>
</g>
<!-- AS5511 -->
<g id="node10" class="node">
<title>AS5511</title>
<g id="a_node10"><a xlink:href="/search?q=AS5511" xlink:title="Orange S.A.">
<polygon fill="#ffffff" stroke="#005ea5" stroke-width="3" points="540,-52 474,-52 474,-16 540,-16 540,-52"/>
<text text-anchor="start" x="482" y="-35.8" font-family="Monospace" font-weight="bold" font-size="14.00" fill="#000000">AS5511</text>
<text text-anchor="start" x="488.5" y="-25" font-family="Monospace" font-size="10.00" fill="#000000">Orange</text>
</a>
</g>
</g>
<!-- AS5511&#45;&gt;AS701 -->
<g id="edge6" class="edge">
<title>AS5511&#45;&gt;AS701</title>
<path fill="none" stroke="#000000" d="M540.2482,-34C540.2482,-34 573.4577,-34 573.4577,-34"/>
<polygon fill="#000000" stroke="#000000" points="573.4577,-37.5001 583.4577,-34 573.4576,-30.5001 573.4577,-37.5001"/>
</g>
<!-- AS6453 -->
<g id="node11" class="node">
<title>AS6453</title>
<g id="a_node11"><a xlink:href="/search?q=AS6453" xlink:title="TATA Communications (America) Inc">
<polygon fill="#ffffff" stroke="#005ea5" stroke-width="3" points="540,-322 474,-322 474,-286 540,-286 540,-322"/>
<text text-anchor="start" x="482" y="-305.8" font-family="Monospace" font-weight="bold" font-size="14.00" fill="#000000">AS6453</text>
<text text-anchor="start" x="494.5" y="-295" font-family="Monospace" font-size="10.00" fill="#000000">TATA</text>
</a>
</g>
</g>
<!-- AS6461 -->
<g id="node12" class="node">
<title>AS6461</title>
<g id="a_node12"><a xlink:href="/search?q=AS6461" xlink:title="Zayo Bandwidth">
<polygon fill="#ffffff" stroke="#005ea5" stroke-width="3" points="540,-484 474,-484 474,-448 540,-448 540,-484"/>
<text text-anchor="start" x="482" y="-467.8" font-family="Monospace" font-weight="bold" font-size="14.00" fill="#000000">AS6461</text>
<text text-anchor="start" x="494.5" y="-457" font-family="Monospace" font-size="10.00" fill="#000000">Zayo</text>
</a>
</g>
</g>
<!-- AS6762 -->
<g id="node13" class="node">
<title>AS6762</title>
<g id="a_node13"><a xlink:href="/search?q=AS6762" xlink:title="Telecom Italia Sparkle S.p.A">
<polygon fill="#ffffff" stroke="#005ea5" stroke-width="3" points="540,-376 474,-376 474,-340 540,-340 540,-376"/>
<text text-anchor="start" x="482" y="-359.8" font-family="Monospace" font-weight="bold" font-size="14.00" fill="#000000">AS6762</text>
<text text-anchor="start" x="485.5" y="-349" font-family="Monospace" font-size="10.00" fill="#000000">Sparkle</text>
</a>
</g>
</g>
<!-- AS6830 -->
<g id="node14" class="node">
<title>AS6830</title>
<g id="a_node14"><a xlink:href="/search?q=AS6830" xlink:title="Liberty Global B.V.">
<polygon fill="#ffffff" stroke="#005ea5" stroke-width="3" points="540,-430 474,-430 474,-394 540,-394 540,-430"/>
<text text-anchor="start" x="482" y="-413.8" font-family="Monospace" font-weight="bold" font-size="14.00" fill="#000000">AS6830</text>
<text text-anchor="start" x="485.5" y="-403" font-family="Monospace" font-size="10.00" fill="#000000">Liberty</text>
</a>
</g>
</g>
<!-- AS6830&#45;&gt;AS3356 -->
<g id="edge1" class="edge">
<title>AS6830&#45;&gt;AS3356</title>
<path fill="none" stroke="#000000" d="M540.1768,-406C546.9216,-406 552,-406 552,-406 552,-406 552,-151 552,-151 552,-151 569.6443,-151 569.6443,-151"/>
<polygon fill="#000000" stroke="#000000" points="569.6444,-154.5001 579.6443,-151 569.6443,-147.5001 569.6444,-154.5001"/>
</g>
<!-- AS12956 -->
<g id="node15" class="node">
<title>AS12956</title>
<g id="a_node15"><a xlink:href="/search?q=AS12956" xlink:title="Telxius (Telefonica Global)">
<polygon fill="#ffffff" stroke="#005ea5" stroke-width="3" points="650,-430 576,-430 576,-394 650,-394 650,-430"/>
<text text-anchor="start" x="584" y="-413.8" font-family="Monospace" font-weight="bold" font-size="14.00" fill="#000000">AS12956</text>
<text text-anchor="start" x="591.5" y="-403" font-family="Monospace" font-size="10.00" fill="#000000">Telxius</text>
</a>
</g>
</g>
<!-- AS6830&#45;&gt;AS12956 -->
<g id="edge9" class="edge">
<title>AS6830&#45;&gt;AS12956</title>
<path fill="none" stroke="#000000" d="M540.2482,-418C540.2482,-418 565.8112,-418 565.8112,-418"/>
<polygon fill="#000000" stroke="#000000" points="565.8112,-421.5001 575.8112,-418 565.8111,-414.5001 565.8112,-421.5001"/>
</g>
<!-- AS33891 -->
<g id="node17" class="node">
<title>AS33891</title>
<g id="a_node17"><a xlink:href="/search?q=AS33891" xlink:title="Core&#45;Backbone GmbH">
<polygon fill="none" stroke="#000000" points="433.5,-484 359.5,-484 359.5,-448 433.5,-448 433.5,-484"/>
<text text-anchor="start" x="367.5" y="-467.8" font-family="Monospace" font-weight="bold" font-size="14.00" fill="#000000">AS33891</text>
<text text-anchor="start" x="378" y="-457" font-family="Monospace" font-size="10.00" fill="#000000">CoreBB</text>
</a>
</g>
</g>
<!-- AS30823&#45;&gt;AS33891 -->
<g id="edge12" class="edge">
<title>AS30823&#45;&gt;AS33891</title>
<path fill="none" stroke="#000000" d="M172,-331.1519C172,-371.68 172,-466 172,-466 172,-466 349.4284,-466 349.4284,-466"/>
<polygon fill="#000000" stroke="#000000" points="349.4284,-469.5001 359.4284,-466 349.4284,-462.5001 349.4284,-469.5001"/>
</g>
<!-- AS44592 -->
<g id="node18" class="node">
<title>AS44592</title>
<g id="a_node18"><a xlink:href="/search?q=AS44592" xlink:title="SkyLink Data Center BV">
<polygon fill="none" stroke="#000000" points="319,-331 245,-331 245,-295 319,-295 319,-331"/>
<text text-anchor="start" x="253" y="-314.8" font-family="Monospace" font-weight="bold" font-size="14.00" fill="#000000">AS44592</text>
<text text-anchor="start" x="260.5" y="-304" font-family="Monospace" font-size="10.00" fill="#000000">SkyLink</text>
</a>
</g>
</g>
<!-- AS30823&#45;&gt;AS44592 -->
<g id="edge7" class="edge">
<title>AS30823&#45;&gt;AS44592</title>
<path fill="none" stroke="#000000" d="M209.241,-313C209.241,-313 234.7974,-313 234.7974,-313"/>
<polygon fill="#000000" stroke="#000000" points="234.7974,-316.5001 244.7974,-313 234.7973,-309.5001 234.7974,-316.5001"/>
</g>
<!-- AS60068 -->
<g id="node19" class="node">
<title>AS60068</title>
<g id="a_node19"><a xlink:href="/search?q=AS60068" xlink:title="Datacamp Limited (CDN77 / DataPacket)">
<polygon fill="none" stroke="#000000" points="433.5,-106 359.5,-106 359.5,-70 433.5,-70 433.5,-106"/>
<text text-anchor="start" x="367.5" y="-89.8" font-family="Monospace" font-weight="bold" font-size="14.00" fill="#000000">AS60068</text>
<text text-anchor="start" x="381" y="-79" font-family="Monospace" font-size="10.00" fill="#000000">CDN77</text>
</a>
</g>
</g>
<!-- AS30823&#45;&gt;AS60068 -->
<g id="edge2" class="edge">
<title>AS30823&#45;&gt;AS60068</title>
<path fill="none" stroke="#000000" d="M172,-294.9676C172,-241.576 172,-88 172,-88 172,-88 349.4284,-88 349.4284,-88"/>
<polygon fill="#000000" stroke="#000000" points="349.4284,-91.5001 359.4284,-88 349.4284,-84.5001 349.4284,-91.5001"/>
</g>
<!-- AS33891&#45;&gt;AS3320 -->
<g id="edge4" class="edge">
<title>AS33891&#45;&gt;AS3320</title>
<path fill="none" stroke="#000000" d="M397,-484.2819C397,-499.9478 397,-520 397,-520 397,-520 463.9964,-520 463.9964,-520"/>
<polygon fill="#000000" stroke="#000000" points="463.9964,-523.5001 473.9964,-520 463.9963,-516.5001 463.9964,-523.5001"/>
</g>
<!-- AS33891&#45;&gt;AS6461 -->
<g id="edge14" class="edge">
<title>AS33891&#45;&gt;AS6461</title>
<path fill="none" stroke="#000000" d="M433.6023,-466C433.6023,-466 463.8931,-466 463.8931,-466"/>
<polygon fill="#000000" stroke="#000000" points="463.8932,-469.5001 473.8931,-466 463.8931,-462.5001 463.8932,-469.5001"/>
</g>
<!-- AS44592&#45;&gt;AS6830 -->
<g id="edge19" class="edge">
<title>AS44592&#45;&gt;AS6830</title>
<path fill="none" stroke="#000000" d="M282,-331.1581C282,-359.7386 282,-412 282,-412 282,-412 463.8005,-412 463.8005,-412"/>
<polygon fill="#000000" stroke="#000000" points="463.8005,-415.5001 473.8005,-412 463.8004,-408.5001 463.8005,-415.5001"/>
</g>
<!-- AS199524 -->
<g id="node20" class="node">
<title>AS199524</title>
<g id="a_node20"><a xlink:href="/search?q=AS199524" xlink:title="Gcore S.A.">
<polygon fill="none" stroke="#000000" points="438,-289 355,-289 355,-253 438,-253 438,-289"/>
<text text-anchor="start" x="363" y="-272.8" font-family="Monospace" font-weight="bold" font-size="14.00" fill="#000000">AS199524</text>
<text text-anchor="start" x="381" y="-262" font-family="Monospace" font-size="10.00" fill="#000000">Gcore</text>
</a>
</g>
</g>
<!-- AS44592&#45;&gt;AS199524 -->
<g id="edge21" class="edge">
<title>AS44592&#45;&gt;AS199524</title>
<path fill="none" stroke="#000000" d="M319.1854,-308.5C348.6885,-308.5 385,-308.5 385,-308.5 385,-308.5 385,-299.3106 385,-299.3106"/>
<polygon fill="#000000" stroke="#000000" points="388.5001,-299.3105 385,-289.3106 381.5001,-299.3106 388.5001,-299.3105"/>
</g>
<!-- AS60068&#45;&gt;AS3257 -->
<g id="edge15" class="edge">
<title>AS60068&#45;&gt;AS3257</title>
<path fill="none" stroke="#000000" d="M433.6023,-88C433.6023,-88 463.8931,-88 463.8931,-88"/>
<polygon fill="#000000" stroke="#000000" points="463.8932,-91.5001 473.8931,-88 463.8931,-84.5001 463.8932,-91.5001"/>
</g>
<!-- AS60068&#45;&gt;AS5511 -->
<g id="edge10" class="edge">
<title>AS60068&#45;&gt;AS5511</title>
<path fill="none" stroke="#000000" d="M397,-69.7181C397,-54.0522 397,-34 397,-34 397,-34 463.9964,-34 463.9964,-34"/>
<polygon fill="#000000" stroke="#000000" points="463.9964,-37.5001 473.9964,-34 463.9963,-30.5001 463.9964,-37.5001"/>
</g>
<!-- AS199524&#45;&gt;AS174 -->
<g id="edge18" class="edge">
<title>AS199524&#45;&gt;AS174</title>
<path fill="none" stroke="#000000" d="M438.2753,-260.5C438.2753,-260.5 467.8861,-260.5 467.8861,-260.5"/>
<polygon fill="#000000" stroke="#000000" points="467.8862,-264.0001 477.8861,-260.5 467.8861,-257.0001 467.8862,-264.0001"/>
</g>
<!-- AS199524&#45;&gt;AS1299 -->
<g id="edge17" class="edge">
<title>AS199524&#45;&gt;AS1299</title>
<path fill="none" stroke="#000000" d="M409,-252.8446C409,-230.6481 409,-196 409,-196 409,-196 463.8217,-196 463.8217,-196"/>
<polygon fill="#000000" stroke="#000000" points="463.8217,-199.5001 473.8217,-196 463.8216,-192.5001 463.8217,-199.5001"/>
</g>
<!-- AS199524&#45;&gt;AS2914 -->
<g id="edge13" class="edge">
<title>AS199524&#45;&gt;AS2914</title>
<path fill="none" stroke="#000000" d="M385,-252.7911C385,-217.2321 385,-142 385,-142 385,-142 463.985,-142 463.985,-142"/>
<polygon fill="#000000" stroke="#000000" points="463.9851,-145.5001 473.985,-142 463.985,-138.5001 463.9851,-145.5001"/>
</g>
<!-- AS199524&#45;&gt;AS6453 -->
<g id="edge20" class="edge">
<title>AS199524&#45;&gt;AS6453</title>
<path fill="none" stroke="#000000" d="M438.2753,-277C469.567,-277 507,-277 507,-277 507,-277 507,-277.8841 507,-277.8841"/>
<polygon fill="#000000" stroke="#000000" points="503.5001,-275.8408 507,-285.8408 510.5001,-275.8409 503.5001,-275.8408"/>
</g>
<!-- AS199524&#45;&gt;AS6762 -->
<g id="edge8" class="edge">
<title>AS199524&#45;&gt;AS6762</title>
<path fill="none" stroke="#000000" d="M409,-289.0265C409,-314.5093 409,-358 409,-358 409,-358 463.8217,-358 463.8217,-358"/>
<polygon fill="#000000" stroke="#000000" points="463.8217,-361.5001 473.8217,-358 463.8216,-354.5001 463.8217,-361.5001"/>
</g>
</g>
</svg>
