<svg xmlns:xlink="http://www.w3.org/1999/xlink" xmlns="http://www.w3.org/2000/svg" version="1.0" width="1024" height="1024" viewBox="0 0 1024.000000 1024.000000" preserveAspectRatio="xMidYMid meet">

<g transform="translate(0.000000,1024.000000) scale(0.100000,-0.100000)" fill="#000000" stroke="none">
<path d="M4951 9872 c-252 -624 -502 -1234 -610 -1486 -61 -143 -109 -261 -107 -263 1 -2 58 119 126 267 68 149 126 273 129 274 3 2 292 -162 641 -366 349 -203 643 -374 652 -379 12 -7 6 17 -24 94 -285 721 -474 1310 -613 1918 -26 112 -49 214 -51 227 -2 12 -8 22 -12 22 -4 0 -63 -139 -131 -308z"/>
<path d="M4206 8075 c-9 -26 -7 -32 5 -12 6 10 9 21 6 23 -2 3 -7 -2 -11 -11z"/>
<path d="M5335 5420 c-473 -35 -919 -140 -1390 -328 -307 -123 -628 -285 -1080 -545 -143 -82 -331 -190 -418 -239 -156 -90 -158 -92 -191 -152 -18 -34 -100 -185 -181 -336 -396 -735 -1202 -2206 -1743 -3180 -148 -267 -268 -487 -267 -488 2 -2 91 45 197 106 1473 835 2543 1302 3489 1521 97 22 195 43 218 47 23 4 44 10 47 15 2 5 -4 55 -15 111 -35 187 -46 317 -45 548 1 247 11 352 54 570 170 852 695 1373 1249 1240 425 -102 784 -587 926 -1251 74 -352 83 -725 24 -1091 -11 -70 -18 -132 -14 -138 3 -5 14 -10 23 -10 9 0 85 -16 167 -35 962 -224 1994 -669 3440 -1485 110 -62 219 -123 241 -137 46 -26 101 -132 -719 1382 -86 158 -88 161 -169 225 -46 36 -157 125 -248 199 -435 354 -813 610 -1245 845 -76 42 -144 77 -150 80 -5 2 -8 6 -5 9 7 7 300 -76 489 -139 287 -97 578 -221 790 -339 63 -35 82 -42 77 -28 -4 10 -114 218 -245 463 -131 245 -345 647 -476 893 -184 346 -256 473 -318 555 -99 133 -307 431 -461 662 l-117 175 -107 33 c-382 118 -773 198 -1132 232 -160 15 -551 20 -695 10z"/>
</g>
</svg>