<?xml version="1.0" encoding="UTF-8" standalone="no"?>
<!DOCTYPE svg PUBLIC "-//W3C//DTD SVG 1.1//EN"
 "http://www.w3.org/Graphics/SVG/1.1/DTD/svg11.dtd">
<!-- Generated by graphviz version 2.40.1 (20161225.0304)
 -->
<!-- Title: world Pages: 1 -->
<svg width="762pt" height="662pt"
 viewBox="0.00 0.00 762.00 662.00" xmlns="http://www.w3.org/2000/svg" xmlns:xlink="http://www.w3.org/1999/xlink">
<g id="graph0" class="graph" transform="scale(1 1) rotate(0) translate(4 658)">
<title>world</title>
<polygon fill="#ffffff" stroke="transparent" points="-4,4 -4,-658 758,-658 758,4 -4,4"/>
<text text-anchor="middle" x="377" y="-638.8" font-family="DejaVu Sans, Bold" font-size="14.00" fill="#000000">15 Nov 22 10:32 UTC</text>
<g id="clust1" class="cluster">
<title>cluster_origins</title>
<polygon fill="#98fb98" stroke="#98fb98" points="8,-301 8,-376 121,-376 121,-301 8,-301"/>
<text text-anchor="middle" x="64.5" y="-360.8" font-family="DejaVu Sans, Bold" font-size="14.00" fill="#000000">Origins</text>
</g>
<g id="clust2" class="cluster">
<title>cluster_t1isp</title>
<polygon fill="#add8e6" stroke="#add8e6" points="530,-8 530,-623 746,-623 746,-8 530,-8"/>
<text text-anchor="middle" x="638" y="-607.8" font-family="DejaVu Sans, Bold" font-size="14.00" fill="#000000">Tier 1 ISPs</text>
</g>
<!-- AS206275 -->
<g id="node1" class="node">
<title>AS206275</title>
<polygon fill="#ffffff" stroke="#32cd32" stroke-width="3" points="113,-345 16,-345 16,-309 113,-309 113,-345"/>
<text text-anchor="middle" x="64.5" y="-323.3" font-family="DejaVu Sans, Bold" font-size="14.00" fill="#000000">AS206275</text>
</g>
<!-- AS30823 -->
<g id="node17" class="node">
<title>AS30823</title>
<g id="a_node17"><a xlink:href="/search?q=AS30823" xlink:title="combahton GmbH">
<polygon fill="none" stroke="#000000" points="236,-345 149,-345 149,-309 236,-309 236,-345"/>
<text text-anchor="middle" x="192.5" y="-323.3" font-family="DejaVu Sans, Bold" font-size="14.00" fill="#000000">AS30823</text>
</a>
</g>
</g>
<!-- AS206275&#45;&gt;AS30823 -->
<g id="edge19" class="edge">
<title>AS206275&#45;&gt;AS30823</title>
<path fill="none" stroke="#000000" d="M113.2565,-327C113.2565,-327 138.9124,-327 138.9124,-327"/>
<polygon fill="#000000" stroke="#000000" points="138.9125,-330.5001 148.9124,-327 138.9124,-323.5001 138.9125,-330.5001"/>
</g>
<!-- AS174 -->
<g id="node2" class="node">
<title>AS174</title>
<g id="a_node2"><a xlink:href="/search?q=AS174" xlink:title="Cogent Communications">
<polygon fill="#ffffff" stroke="#005ea5" stroke-width="3" points="610.5,-52 542.5,-52 542.5,-16 610.5,-16 610.5,-52"/>
<text text-anchor="middle" x="576.5" y="-30.3" font-family="DejaVu Sans, Bold" font-size="14.00" fill="#000000">AS174</text>
</a>
</g>
</g>
<!-- AS2914 -->
<g id="node5" class="node">
<title>AS2914</title>
<g id="a_node5"><a xlink:href="/search?q=AS2914" xlink:title="NTT America, Inc.">
<polygon fill="#ffffff" stroke="#005ea5" stroke-width="3" points="733,-160 656,-160 656,-124 733,-124 733,-160"/>
<text text-anchor="middle" x="694.5" y="-138.3" font-family="DejaVu Sans, Bold" font-size="14.00" fill="#000000">AS2914</text>
</a>
</g>
</g>
<!-- AS174&#45;&gt;AS2914 -->
<g id="edge7" class="edge">
<title>AS174&#45;&gt;AS2914</title>
<path fill="none" stroke="#000000" d="M610.6759,-40C625.2671,-40 639,-40 639,-40 639,-40 639,-133 639,-133 639,-133 645.9534,-133 645.9534,-133"/>
<polygon fill="#000000" stroke="#000000" points="645.9534,-136.5001 655.9534,-133 645.9534,-129.5001 645.9534,-136.5001"/>
</g>
<!-- AS3491 -->
<g id="node9" class="node">
<title>AS3491</title>
<g id="a_node9"><a xlink:href="/search?q=AS3491" xlink:title="PCCW Global, Inc.">
<polygon fill="#ffffff" stroke="#005ea5" stroke-width="3" points="733,-52 656,-52 656,-16 733,-16 733,-52"/>
<text text-anchor="middle" x="694.5" y="-30.3" font-family="DejaVu Sans, Bold" font-size="14.00" fill="#000000">AS3491</text>
</a>
</g>
</g>
<!-- AS174&#45;&gt;AS3491 -->
<g id="edge6" class="edge">
<title>AS174&#45;&gt;AS3491</title>
<path fill="none" stroke="#000000" d="M610.6305,-28C610.6305,-28 645.8828,-28 645.8828,-28"/>
<polygon fill="#000000" stroke="#000000" points="645.8828,-31.5001 655.8828,-28 645.8828,-24.5001 645.8828,-31.5001"/>
</g>
<!-- AS1239 -->
<g id="node3" class="node">
<title>AS1239</title>
<g id="a_node3"><a xlink:href="/search?q=AS1239" xlink:title="T&#45;Mobile US (Sprint)">
<polygon fill="#ffffff" stroke="#005ea5" stroke-width="3" points="615,-592 538,-592 538,-556 615,-556 615,-592"/>
<text text-anchor="middle" x="576.5" y="-570.3" font-family="DejaVu Sans, Bold" font-size="14.00" fill="#000000">AS1239</text>
</a>
</g>
</g>
<!-- AS1299 -->
<g id="node4" class="node">
<title>AS1299</title>
<g id="a_node4"><a xlink:href="/search?q=AS1299" xlink:title="Arelion (fka. Telia Carrier)">
<polygon fill="#ffffff" stroke="#005ea5" stroke-width="3" points="615,-430 538,-430 538,-394 615,-394 615,-430"/>
<text text-anchor="middle" x="576.5" y="-408.3" font-family="DejaVu Sans, Bold" font-size="14.00" fill="#000000">AS1299</text>
</a>
</g>
</g>
<!-- AS1299&#45;&gt;AS2914 -->
<g id="edge8" class="edge">
<title>AS1299&#45;&gt;AS2914</title>
<path fill="none" stroke="#000000" d="M615.0322,-406C621.9443,-406 627,-406 627,-406 627,-406 627,-151 627,-151 627,-151 645.6261,-151 645.6261,-151"/>
<polygon fill="#000000" stroke="#000000" points="645.6261,-154.5001 655.6261,-151 645.626,-147.5001 645.6261,-154.5001"/>
</g>
<!-- AS12956 -->
<g id="node15" class="node">
<title>AS12956</title>
<g id="a_node15"><a xlink:href="/search?q=AS12956" xlink:title="Telxius (Telefonica Global)">
<polygon fill="#ffffff" stroke="#005ea5" stroke-width="3" points="738,-430 651,-430 651,-394 738,-394 738,-430"/>
<text text-anchor="middle" x="694.5" y="-408.3" font-family="DejaVu Sans, Bold" font-size="14.00" fill="#000000">AS12956</text>
</a>
</g>
</g>
<!-- AS1299&#45;&gt;AS12956 -->
<g id="edge10" class="edge">
<title>AS1299&#45;&gt;AS12956</title>
<path fill="none" stroke="#000000" d="M615.1376,-418C615.1376,-418 640.8702,-418 640.8702,-418"/>
<polygon fill="#000000" stroke="#000000" points="640.8703,-421.5001 650.8702,-418 640.8702,-414.5001 640.8703,-421.5001"/>
</g>
<!-- AS3257 -->
<g id="node6" class="node">
<title>AS3257</title>
<g id="a_node6"><a xlink:href="/search?q=AS3257" xlink:title="GTT Communications Inc.">
<polygon fill="#ffffff" stroke="#005ea5" stroke-width="3" points="615,-322 538,-322 538,-286 615,-286 615,-322"/>
<text text-anchor="middle" x="576.5" y="-300.3" font-family="DejaVu Sans, Bold" font-size="14.00" fill="#000000">AS3257</text>
</a>
</g>
</g>
<!-- AS3320 -->
<g id="node7" class="node">
<title>AS3320</title>
<g id="a_node7"><a xlink:href="/search?q=AS3320" xlink:title="Deutsche Telekom AG">
<polygon fill="#ffffff" stroke="#005ea5" stroke-width="3" points="615,-376 538,-376 538,-340 615,-340 615,-376"/>
<text text-anchor="middle" x="576.5" y="-354.3" font-family="DejaVu Sans, Bold" font-size="14.00" fill="#000000">AS3320</text>
</a>
</g>
</g>
<!-- AS3356 -->
<g id="node8" class="node">
<title>AS3356</title>
<g id="a_node8"><a xlink:href="/search?q=AS3356" xlink:title="Lumen (Level 3)">
<polygon fill="#ffffff" stroke="#005ea5" stroke-width="3" points="615,-538 538,-538 538,-502 615,-502 615,-538"/>
<text text-anchor="middle" x="576.5" y="-516.3" font-family="DejaVu Sans, Bold" font-size="14.00" fill="#000000">AS3356</text>
</a>
</g>
</g>
<!-- AS5511 -->
<g id="node10" class="node">
<title>AS5511</title>
<g id="a_node10"><a xlink:href="/search?q=AS5511" xlink:title="Orange S.A.">
<polygon fill="#ffffff" stroke="#005ea5" stroke-width="3" points="615,-268 538,-268 538,-232 615,-232 615,-268"/>
<text text-anchor="middle" x="576.5" y="-246.3" font-family="DejaVu Sans, Bold" font-size="14.00" fill="#000000">AS5511</text>
</a>
</g>
</g>
<!-- AS6453 -->
<g id="node11" class="node">
<title>AS6453</title>
<g id="a_node11"><a xlink:href="/search?q=AS6453" xlink:title="TATA COMMUNICATIONS">
<polygon fill="#ffffff" stroke="#005ea5" stroke-width="3" points="615,-106 538,-106 538,-70 615,-70 615,-106"/>
<text text-anchor="middle" x="576.5" y="-84.3" font-family="DejaVu Sans, Bold" font-size="14.00" fill="#000000">AS6453</text>
</a>
</g>
</g>
<!-- AS6461 -->
<g id="node12" class="node">
<title>AS6461</title>
<g id="a_node12"><a xlink:href="/search?q=AS6461" xlink:title="Zayo Bandwidth">
<polygon fill="#ffffff" stroke="#005ea5" stroke-width="3" points="615,-484 538,-484 538,-448 615,-448 615,-484"/>
<text text-anchor="middle" x="576.5" y="-462.3" font-family="DejaVu Sans, Bold" font-size="14.00" fill="#000000">AS6461</text>
</a>
</g>
</g>
<!-- AS6762 -->
<g id="node13" class="node">
<title>AS6762</title>
<g id="a_node13"><a xlink:href="/search?q=AS6762" xlink:title="TELECOM ITALIA SPARKLE S.p.A.">
<polygon fill="#ffffff" stroke="#005ea5" stroke-width="3" points="615,-214 538,-214 538,-178 615,-178 615,-214"/>
<text text-anchor="middle" x="576.5" y="-192.3" font-family="DejaVu Sans, Bold" font-size="14.00" fill="#000000">AS6762</text>
</a>
</g>
</g>
<!-- AS6830 -->
<g id="node14" class="node">
<title>AS6830</title>
<g id="a_node14"><a xlink:href="/search?q=AS6830" xlink:title="Liberty Global B.V.">
<polygon fill="#ffffff" stroke="#005ea5" stroke-width="3" points="615,-160 538,-160 538,-124 615,-124 615,-160"/>
<text text-anchor="middle" x="576.5" y="-138.3" font-family="DejaVu Sans, Bold" font-size="14.00" fill="#000000">AS6830</text>
</a>
</g>
</g>
<!-- AS6830&#45;&gt;AS2914 -->
<g id="edge9" class="edge">
<title>AS6830&#45;&gt;AS2914</title>
<path fill="none" stroke="#000000" d="M615.1376,-142C615.1376,-142 645.7756,-142 645.7756,-142"/>
<polygon fill="#000000" stroke="#000000" points="645.7756,-145.5001 655.7756,-142 645.7755,-138.5001 645.7756,-145.5001"/>
</g>
<!-- AS9002 -->
<g id="node16" class="node">
<title>AS9002</title>
<g id="a_node16"><a xlink:href="/search?q=AS9002" xlink:title="RETN Limited">
<polygon fill="none" stroke="#000000" points="492,-538 415,-538 415,-502 492,-502 492,-538"/>
<text text-anchor="middle" x="453.5" y="-516.3" font-family="DejaVu Sans, Bold" font-size="14.00" fill="#000000">AS9002</text>
</a>
</g>
</g>
<!-- AS9002&#45;&gt;AS1239 -->
<g id="edge21" class="edge">
<title>AS9002&#45;&gt;AS1239</title>
<path fill="none" stroke="#000000" d="M454,-538.2819C454,-553.9478 454,-574 454,-574 454,-574 527.7402,-574 527.7402,-574"/>
<polygon fill="#000000" stroke="#000000" points="527.7403,-577.5001 537.7402,-574 527.7402,-570.5001 527.7403,-577.5001"/>
</g>
<!-- AS9002&#45;&gt;AS3356 -->
<g id="edge5" class="edge">
<title>AS9002&#45;&gt;AS3356</title>
<path fill="none" stroke="#000000" d="M492.0805,-520C492.0805,-520 527.6335,-520 527.6335,-520"/>
<polygon fill="#000000" stroke="#000000" points="527.6335,-523.5001 537.6335,-520 527.6335,-516.5001 527.6335,-523.5001"/>
</g>
<!-- AS30823&#45;&gt;AS9002 -->
<g id="edge2" class="edge">
<title>AS30823&#45;&gt;AS9002</title>
<path fill="none" stroke="#000000" d="M193,-345.157C193,-393.2017 193,-520 193,-520 193,-520 404.7818,-520 404.7818,-520"/>
<polygon fill="#000000" stroke="#000000" points="404.7818,-523.5001 414.7818,-520 404.7818,-516.5001 404.7818,-523.5001"/>
</g>
<!-- AS33891 -->
<g id="node18" class="node">
<title>AS33891</title>
<g id="a_node18"><a xlink:href="/search?q=AS33891" xlink:title="Core&#45;Backbone GmbH">
<polygon fill="none" stroke="#000000" points="497,-376 410,-376 410,-340 497,-340 497,-376"/>
<text text-anchor="middle" x="453.5" y="-354.3" font-family="DejaVu Sans, Bold" font-size="14.00" fill="#000000">AS33891</text>
</a>
</g>
</g>
<!-- AS30823&#45;&gt;AS33891 -->
<g id="edge13" class="edge">
<title>AS30823&#45;&gt;AS33891</title>
<path fill="none" stroke="#000000" d="M236.2692,-331C310.7119,-331 454,-331 454,-331 454,-331 454,-331.8841 454,-331.8841"/>
<polygon fill="#000000" stroke="#000000" points="450.5001,-329.8408 454,-339.8408 457.5001,-329.8409 450.5001,-329.8408"/>
</g>
<!-- AS60068 -->
<g id="node19" class="node">
<title>AS60068</title>
<g id="a_node19"><a xlink:href="/search?q=AS60068" xlink:title="Datacamp Limited">
<polygon fill="none" stroke="#000000" points="497,-322 410,-322 410,-286 497,-286 497,-322"/>
<text text-anchor="middle" x="453.5" y="-300.3" font-family="DejaVu Sans, Bold" font-size="14.00" fill="#000000">AS60068</text>
</a>
</g>
</g>
<!-- AS30823&#45;&gt;AS60068 -->
<g id="edge1" class="edge">
<title>AS30823&#45;&gt;AS60068</title>
<path fill="none" stroke="#000000" d="M236.1855,-317.6667C236.1855,-317.6667 399.6719,-317.6667 399.6719,-317.6667"/>
<polygon fill="#000000" stroke="#000000" points="399.672,-321.1668 409.6719,-317.6667 399.6719,-314.1668 399.672,-321.1668"/>
</g>
<!-- AS212708 -->
<g id="node21" class="node">
<title>AS212708</title>
<g id="a_node21"><a xlink:href="/search?q=AS212708" xlink:title="GLOBE DataCenter BV">
<polygon fill="none" stroke="#000000" points="369,-160 272,-160 272,-124 369,-124 369,-160"/>
<text text-anchor="middle" x="320.5" y="-138.3" font-family="DejaVu Sans, Bold" font-size="14.00" fill="#000000">AS212708</text>
</a>
</g>
</g>
<!-- AS30823&#45;&gt;AS212708 -->
<g id="edge23" class="edge">
<title>AS30823&#45;&gt;AS212708</title>
<path fill="none" stroke="#000000" d="M236.3176,-313.3333C267.9057,-313.3333 305,-313.3333 305,-313.3333 305,-313.3333 305,-170.0118 305,-170.0118"/>
<polygon fill="#000000" stroke="#000000" points="308.5001,-170.0118 305,-160.0118 301.5001,-170.0119 308.5001,-170.0118"/>
</g>
<!-- AS33891&#45;&gt;AS1299 -->
<g id="edge12" class="edge">
<title>AS33891&#45;&gt;AS1299</title>
<path fill="none" stroke="#000000" d="M467,-376.2819C467,-391.9478 467,-412 467,-412 467,-412 527.8944,-412 527.8944,-412"/>
<polygon fill="#000000" stroke="#000000" points="527.8944,-415.5001 537.8944,-412 527.8944,-408.5001 527.8944,-415.5001"/>
</g>
<!-- AS33891&#45;&gt;AS3257 -->
<g id="edge15" class="edge">
<title>AS33891&#45;&gt;AS3257</title>
<path fill="none" stroke="#000000" d="M497.1145,-352C509.6489,-352 520,-352 520,-352 520,-352 520,-310 520,-310 520,-310 527.877,-310 527.877,-310"/>
<polygon fill="#000000" stroke="#000000" points="527.877,-313.5001 537.877,-310 527.8769,-306.5001 527.877,-313.5001"/>
</g>
<!-- AS33891&#45;&gt;AS3320 -->
<g id="edge4" class="edge">
<title>AS33891&#45;&gt;AS3320</title>
<path fill="none" stroke="#000000" d="M497.2115,-364C497.2115,-364 527.8352,-364 527.8352,-364"/>
<polygon fill="#000000" stroke="#000000" points="527.8352,-367.5001 537.8352,-364 527.8352,-360.5001 527.8352,-367.5001"/>
</g>
<!-- AS33891&#45;&gt;AS6461 -->
<g id="edge16" class="edge">
<title>AS33891&#45;&gt;AS6461</title>
<path fill="none" stroke="#000000" d="M441,-376.3207C441,-407.1336 441,-466 441,-466 441,-466 527.6711,-466 527.6711,-466"/>
<polygon fill="#000000" stroke="#000000" points="527.6712,-469.5001 537.6711,-466 527.6711,-462.5001 527.6712,-469.5001"/>
</g>
<!-- AS60068&#45;&gt;AS3257 -->
<g id="edge18" class="edge">
<title>AS60068&#45;&gt;AS3257</title>
<path fill="none" stroke="#000000" d="M497.2115,-298C497.2115,-298 527.8352,-298 527.8352,-298"/>
<polygon fill="#000000" stroke="#000000" points="527.8352,-301.5001 537.8352,-298 527.8352,-294.5001 527.8352,-301.5001"/>
</g>
<!-- AS60068&#45;&gt;AS5511 -->
<g id="edge11" class="edge">
<title>AS60068&#45;&gt;AS5511</title>
<path fill="none" stroke="#000000" d="M454,-285.7181C454,-270.0522 454,-250 454,-250 454,-250 527.7402,-250 527.7402,-250"/>
<polygon fill="#000000" stroke="#000000" points="527.7403,-253.5001 537.7402,-250 527.7402,-246.5001 527.7403,-253.5001"/>
</g>
<!-- AS199524 -->
<g id="node20" class="node">
<title>AS199524</title>
<g id="a_node20"><a xlink:href="/search?q=AS199524" xlink:title="Gcore S.A.">
<polygon fill="none" stroke="#000000" points="502,-110 405,-110 405,-74 502,-74 502,-110"/>
<text text-anchor="middle" x="453.5" y="-88.3" font-family="DejaVu Sans, Bold" font-size="14.00" fill="#000000">AS199524</text>
</a>
</g>
</g>
<!-- AS199524&#45;&gt;AS6453 -->
<g id="edge22" class="edge">
<title>AS199524&#45;&gt;AS6453</title>
<path fill="none" stroke="#000000" d="M502.1129,-90C502.1129,-90 527.7087,-90 527.7087,-90"/>
<polygon fill="#000000" stroke="#000000" points="527.7087,-93.5001 537.7087,-90 527.7086,-86.5001 527.7087,-93.5001"/>
</g>
<!-- AS212708&#45;&gt;AS174 -->
<g id="edge3" class="edge">
<title>AS212708&#45;&gt;AS174</title>
<path fill="none" stroke="#000000" d="M305,-123.6793C305,-92.8664 305,-34 305,-34 305,-34 532.3892,-34 532.3892,-34"/>
<polygon fill="#000000" stroke="#000000" points="532.3893,-37.5001 542.3892,-34 532.3892,-30.5001 532.3893,-37.5001"/>
</g>
<!-- AS212708&#45;&gt;AS6762 -->
<g id="edge20" class="edge">
<title>AS212708&#45;&gt;AS6762</title>
<path fill="none" stroke="#000000" d="M337,-160.2819C337,-175.9478 337,-196 337,-196 337,-196 527.754,-196 527.754,-196"/>
<polygon fill="#000000" stroke="#000000" points="527.754,-199.5001 537.754,-196 527.754,-192.5001 527.754,-199.5001"/>
</g>
<!-- AS212708&#45;&gt;AS6830 -->
<g id="edge17" class="edge">
<title>AS212708&#45;&gt;AS6830</title>
<path fill="none" stroke="#000000" d="M369.2542,-142C369.2542,-142 527.9512,-142 527.9512,-142"/>
<polygon fill="#000000" stroke="#000000" points="527.9513,-145.5001 537.9512,-142 527.9512,-138.5001 527.9513,-145.5001"/>
</g>
<!-- AS212708&#45;&gt;AS199524 -->
<g id="edge14" class="edge">
<title>AS212708&#45;&gt;AS199524</title>
<path fill="none" stroke="#000000" d="M337,-123.9489C337,-109.627 337,-92 337,-92 337,-92 394.7685,-92 394.7685,-92"/>
<polygon fill="#000000" stroke="#000000" points="394.7686,-95.5001 404.7685,-92 394.7685,-88.5001 394.7686,-95.5001"/>
</g>
</g>
</svg>
